# xmcd
#
# Track frame offsets: 
#        225
#        11935
#        22340
#        33015
#        49597
#        68086
#        78309
#        95482
#        108911
#        122302
#        139084
#        151035
#        162065
#        173311
#
# Disc length: 2489 seconds
#
# Revision: 1
# Processed by: cddbd v1.5.2PL0 Copyright (c) Steve Scherf et al.
# Submitted via: ExactAudioCopy v1.3
#
DISCID=9c09b60e
DTITLE=Freddy Quinn - Country Hits
DYEAR=1900
DGENRE=Country
TTITLE0=Die Freiheit der Berge
TTITLE1=Die schönste Frau von Texas
TTITLE2=Tom Dooley
TTITLE3=Ein ausgedienter Zug
TTITLE4=Er war ein Kind dieser Stadt
TTITLE5=Geh'n wir nochmal den Weg nach Westen
TTITLE6=Gib' mir ein zuhaus'
TTITLE7=Green Green Grass of Home
TTITLE8=It's Country Time
TTITLE9=Heute Nacht, da brauch' ich Dich
TTITLE10=Ich möcht' in Tennessee leben
TTITLE11=Kann Liebe alles verzeih'n?
TTITLE12=Nur ein Mann in besten Jahren
TTITLE13=Oh nur mit Dir
EXTD=ID3G: 2
EXTT0=
EXTT1=
EXTT2=
EXTT3=
EXTT4=
EXTT5=
EXTT6=
EXTT7=
EXTT8=
EXTT9=
EXTT10=
EXTT11=
EXTT12=
EXTT13=
PLAYORDER=
